# This file uses centimeters as units for non-parametric coordinates.

mtllib Azalea_Leaves_3.mtl
g default
v 0.342138 0.052992 1.090390
v -0.253163 0.071907 1.343373
v -0.747429 0.067126 0.866386
v -0.548203 0.074119 0.119420
v 0.000606 -0.091566 0.337783
v -0.001570 -0.000703 -0.017769
v 0.590448 0.043182 0.562614
vt 0.255906 0.051817
vt 0.516304 0.320091
vt 0.515216 -0.004254
vt 0.869757 0.398204
vt 0.169098 0.561611
vt 0.702153 0.743701
vt 0.389420 0.909760
vn 0.000000 0.999965 -0.008336
vn 0.000000 0.999965 -0.008336
vn 0.000000 0.999965 -0.008336
vn 0.000000 0.999965 -0.008336
vn 0.000000 0.999965 -0.008336
vn 0.000000 0.999965 -0.008336
vn 0.000000 0.999965 -0.008336
vn 0.000000 0.999965 -0.008336
vn 0.000000 0.999965 -0.008336
vn 0.000000 0.999965 -0.008336
vn 0.000000 0.999965 -0.008336
vn 0.000000 0.999965 -0.008336
vn 0.000000 0.999965 -0.008336
vn 0.000000 0.999965 -0.008336
vn 0.000000 0.999965 -0.008336
vn 0.000000 0.999965 -0.008336
vn 0.000000 0.999965 -0.008336
vn 0.000000 0.999965 -0.008336
s off
g Azalea_Leaves_1:Mesh
usemtl initialShadingGroup
f 4/1/1 5/2/2 6/3/3
f 5/2/4 7/4/5 6/3/6
f 3/5/7 5/2/8 4/1/9
f 5/2/10 1/6/11 7/4/12
f 5/2/13 2/7/14 1/6/15
f 2/7/16 5/2/17 3/5/18
